<?xml version="1.0" encoding="UTF-8" standalone="no"?>
<!-- Created with Inkscape (http://www.inkscape.org/) -->

<svg
   width="50mm"
   height="42.500004mm"
   viewBox="0 0 50 42.500004"
   version="1.1"
   id="svg5"
   inkscape:version="1.1 (c4e8f9e, 2021-05-24)"
   sodipodi:docname="welcome to the ca.svg"
   xmlns:inkscape="http://www.inkscape.org/namespaces/inkscape"
   xmlns:sodipodi="http://sodipodi.sourceforge.net/DTD/sodipodi-0.dtd"
   xmlns="http://www.w3.org/2000/svg"
   xmlns:svg="http://www.w3.org/2000/svg">
  <sodipodi:namedview
     id="namedview7"
     pagecolor="#ffffff"
     bordercolor="#666666"
     borderopacity="1.0"
     inkscape:pageshadow="2"
     inkscape:pageopacity="0.0"
     inkscape:pagecheckerboard="0"
     inkscape:document-units="mm"
     showgrid="false"
     inkscape:snap-bbox="true"
     inkscape:bbox-paths="true"
     inkscape:snap-bbox-edge-midpoints="true"
     inkscape:snap-bbox-midpoints="true"
     inkscape:bbox-nodes="true"
     inkscape:object-paths="true"
     inkscape:snap-intersection-paths="true"
     inkscape:snap-smooth-nodes="true"
     inkscape:snap-midpoints="true"
     inkscape:snap-object-midpoints="true"
     inkscape:snap-text-baseline="true"
     inkscape:snap-page="true"
     inkscape:snap-center="true"
     inkscape:zoom="0.79610957"
     inkscape:cx="150.10497"
     inkscape:cy="232.38007"
     inkscape:window-width="1293"
     inkscape:window-height="791"
     inkscape:window-x="0"
     inkscape:window-y="25"
     inkscape:window-maximized="0"
     inkscape:current-layer="layer1"
     inkscape:snap-nodes="false" />
  <defs
     id="defs2">
    <clipPath
       clipPathUnits="userSpaceOnUse"
       id="clipPath31933">
      <rect
         style="opacity:0.99;fill:#00b050;fill-opacity:1;stroke:none;stroke-width:0.106619;stroke-linecap:round;stroke-linejoin:round;stroke-miterlimit:4;stroke-dasharray:none;stroke-opacity:0.992157"
         id="rect31935"
         width="50"
         height="20"
         x="-18.674994"
         y="-0.33996487"
         ry="0" />
    </clipPath>
    <clipPath
       clipPathUnits="userSpaceOnUse"
       id="clipPath31937">
      <rect
         style="opacity:0.99;fill:#00b050;fill-opacity:1;stroke:none;stroke-width:0.106619;stroke-linecap:round;stroke-linejoin:round;stroke-miterlimit:4;stroke-dasharray:none;stroke-opacity:0.992157"
         id="rect31939"
         width="50"
         height="20"
         x="-18.674994"
         y="-0.33996487"
         ry="0" />
    </clipPath>
    <clipPath
       clipPathUnits="userSpaceOnUse"
       id="clipPath31941">
      <rect
         style="opacity:0.99;fill:#00b050;fill-opacity:1;stroke:none;stroke-width:0.106619;stroke-linecap:round;stroke-linejoin:round;stroke-miterlimit:4;stroke-dasharray:none;stroke-opacity:0.992157"
         id="rect31943"
         width="50"
         height="20"
         x="-18.674994"
         y="-0.33996487"
         ry="0" />
    </clipPath>
    <clipPath
       clipPathUnits="userSpaceOnUse"
       id="clipPath31945">
      <rect
         style="opacity:0.99;fill:#00b050;fill-opacity:1;stroke:none;stroke-width:0.106619;stroke-linecap:round;stroke-linejoin:round;stroke-miterlimit:4;stroke-dasharray:none;stroke-opacity:0.992157"
         id="rect31947"
         width="50"
         height="20"
         x="-18.674994"
         y="-0.33996487"
         ry="0" />
    </clipPath>
    <clipPath
       clipPathUnits="userSpaceOnUse"
       id="clipPath31949">
      <rect
         style="opacity:0.99;fill:#00b050;fill-opacity:1;stroke:none;stroke-width:0.106619;stroke-linecap:round;stroke-linejoin:round;stroke-miterlimit:4;stroke-dasharray:none;stroke-opacity:0.992157"
         id="rect31951"
         width="50"
         height="20"
         x="-18.674994"
         y="-0.33996487"
         ry="0" />
    </clipPath>
    <clipPath
       clipPathUnits="userSpaceOnUse"
       id="clipPath31953">
      <rect
         style="opacity:0.99;fill:#00b050;fill-opacity:1;stroke:none;stroke-width:0.106619;stroke-linecap:round;stroke-linejoin:round;stroke-miterlimit:4;stroke-dasharray:none;stroke-opacity:0.992157"
         id="rect31955"
         width="50"
         height="20"
         x="-18.674994"
         y="-0.33996487"
         ry="0" />
    </clipPath>
    <clipPath
       clipPathUnits="userSpaceOnUse"
       id="clipPath31957">
      <rect
         style="opacity:0.99;fill:#00b050;fill-opacity:1;stroke:none;stroke-width:0.106619;stroke-linecap:round;stroke-linejoin:round;stroke-miterlimit:4;stroke-dasharray:none;stroke-opacity:0.992157"
         id="rect31959"
         width="50"
         height="20"
         x="-18.674994"
         y="-0.33996487"
         ry="0" />
    </clipPath>
    <clipPath
       clipPathUnits="userSpaceOnUse"
       id="clipPath31961">
      <rect
         style="opacity:0.99;fill:#00b050;fill-opacity:1;stroke:none;stroke-width:0.106619;stroke-linecap:round;stroke-linejoin:round;stroke-miterlimit:4;stroke-dasharray:none;stroke-opacity:0.992157"
         id="rect31963"
         width="50"
         height="20"
         x="-18.674994"
         y="-0.33996487"
         ry="0" />
    </clipPath>
    <clipPath
       clipPathUnits="userSpaceOnUse"
       id="clipPath35740">
      <rect
         style="opacity:0.99;fill:#00b050;fill-opacity:1;stroke:none;stroke-width:0.0533096;stroke-linecap:round;stroke-linejoin:round;stroke-miterlimit:4;stroke-dasharray:none;stroke-opacity:0.992157"
         id="rect35742"
         width="50"
         height="5"
         x="8.4090471"
         y="40.3265"
         ry="0" />
    </clipPath>
    <clipPath
       clipPathUnits="userSpaceOnUse"
       id="clipPath35740-9">
      <rect
         style="opacity:0.99;fill:#00b050;fill-opacity:1;stroke:none;stroke-width:0.0533096;stroke-linecap:round;stroke-linejoin:round;stroke-miterlimit:4;stroke-dasharray:none;stroke-opacity:0.992157"
         id="rect35742-7"
         width="50"
         height="5"
         x="8.4090471"
         y="40.3265"
         ry="0" />
    </clipPath>
    <clipPath
       clipPathUnits="userSpaceOnUse"
       id="clipPath35740-9-9">
      <rect
         style="opacity:0.99;fill:#00b050;fill-opacity:1;stroke:none;stroke-width:0.0533096;stroke-linecap:round;stroke-linejoin:round;stroke-miterlimit:4;stroke-dasharray:none;stroke-opacity:0.992157"
         id="rect35742-7-9"
         width="50"
         height="5"
         x="8.4090471"
         y="40.3265"
         ry="0" />
    </clipPath>
    <clipPath
       clipPathUnits="userSpaceOnUse"
       id="clipPath35740-9-91">
      <rect
         style="opacity:0.99;fill:#00b050;fill-opacity:1;stroke:none;stroke-width:0.0533096;stroke-linecap:round;stroke-linejoin:round;stroke-miterlimit:4;stroke-dasharray:none;stroke-opacity:0.992157"
         id="rect35742-7-5"
         width="50"
         height="5"
         x="8.4090471"
         y="40.3265"
         ry="0" />
    </clipPath>
    <clipPath
       clipPathUnits="userSpaceOnUse"
       id="clipPath35740-9-9-9">
      <rect
         style="opacity:0.99;fill:#00b050;fill-opacity:1;stroke:none;stroke-width:0.0533096;stroke-linecap:round;stroke-linejoin:round;stroke-miterlimit:4;stroke-dasharray:none;stroke-opacity:0.992157"
         id="rect35742-7-9-8"
         width="50"
         height="5"
         x="8.4090471"
         y="40.3265"
         ry="0" />
    </clipPath>
    <clipPath
       clipPathUnits="userSpaceOnUse"
       id="clipPath35740-9-98">
      <rect
         style="opacity:0.99;fill:#00b050;fill-opacity:1;stroke:none;stroke-width:0.0533096;stroke-linecap:round;stroke-linejoin:round;stroke-miterlimit:4;stroke-dasharray:none;stroke-opacity:0.992157"
         id="rect35742-7-3"
         width="50"
         height="5"
         x="8.4090471"
         y="40.3265"
         ry="0" />
    </clipPath>
    <clipPath
       clipPathUnits="userSpaceOnUse"
       id="clipPath35740-9-9-7">
      <rect
         style="opacity:0.99;fill:#00b050;fill-opacity:1;stroke:none;stroke-width:0.0533096;stroke-linecap:round;stroke-linejoin:round;stroke-miterlimit:4;stroke-dasharray:none;stroke-opacity:0.992157"
         id="rect35742-7-9-1"
         width="50"
         height="5"
         x="8.4090471"
         y="40.3265"
         ry="0" />
    </clipPath>
    <clipPath
       clipPathUnits="userSpaceOnUse"
       id="clipPath35740-9-91-2">
      <rect
         style="opacity:0.99;fill:#00b050;fill-opacity:1;stroke:none;stroke-width:0.0533096;stroke-linecap:round;stroke-linejoin:round;stroke-miterlimit:4;stroke-dasharray:none;stroke-opacity:0.992157"
         id="rect35742-7-5-6"
         width="50"
         height="5"
         x="8.4090471"
         y="40.3265"
         ry="0" />
    </clipPath>
    <clipPath
       clipPathUnits="userSpaceOnUse"
       id="clipPath35740-9-9-9-1">
      <rect
         style="opacity:0.99;fill:#00b050;fill-opacity:1;stroke:none;stroke-width:0.0533096;stroke-linecap:round;stroke-linejoin:round;stroke-miterlimit:4;stroke-dasharray:none;stroke-opacity:0.992157"
         id="rect35742-7-9-8-7"
         width="50"
         height="5"
         x="8.4090471"
         y="40.3265"
         ry="0" />
    </clipPath>
    <clipPath
       clipPathUnits="userSpaceOnUse"
       id="clipPath35740-6">
      <rect
         style="opacity:0.99;fill:#00b050;fill-opacity:1;stroke:none;stroke-width:0.0533096;stroke-linecap:round;stroke-linejoin:round;stroke-miterlimit:4;stroke-dasharray:none;stroke-opacity:0.992157"
         id="rect35742-5"
         width="50"
         height="5"
         x="8.4090471"
         y="40.3265"
         ry="0" />
    </clipPath>
    <clipPath
       clipPathUnits="userSpaceOnUse"
       id="clipPath35740-9-98-7">
      <rect
         style="opacity:0.99;fill:#00b050;fill-opacity:1;stroke:none;stroke-width:0.0533096;stroke-linecap:round;stroke-linejoin:round;stroke-miterlimit:4;stroke-dasharray:none;stroke-opacity:0.992157"
         id="rect35742-7-3-1"
         width="50"
         height="5"
         x="8.4090471"
         y="40.3265"
         ry="0" />
    </clipPath>
    <clipPath
       clipPathUnits="userSpaceOnUse"
       id="clipPath35740-9-9-7-6">
      <rect
         style="opacity:0.99;fill:#00b050;fill-opacity:1;stroke:none;stroke-width:0.0533096;stroke-linecap:round;stroke-linejoin:round;stroke-miterlimit:4;stroke-dasharray:none;stroke-opacity:0.992157"
         id="rect35742-7-9-1-0"
         width="50"
         height="5"
         x="8.4090471"
         y="40.3265"
         ry="0" />
    </clipPath>
    <clipPath
       clipPathUnits="userSpaceOnUse"
       id="clipPath35740-9-91-2-9">
      <rect
         style="opacity:0.99;fill:#00b050;fill-opacity:1;stroke:none;stroke-width:0.0533096;stroke-linecap:round;stroke-linejoin:round;stroke-miterlimit:4;stroke-dasharray:none;stroke-opacity:0.992157"
         id="rect35742-7-5-6-2"
         width="50"
         height="5"
         x="8.4090471"
         y="40.3265"
         ry="0" />
    </clipPath>
    <clipPath
       clipPathUnits="userSpaceOnUse"
       id="clipPath35740-9-9-9-1-9">
      <rect
         style="opacity:0.99;fill:#00b050;fill-opacity:1;stroke:none;stroke-width:0.0533096;stroke-linecap:round;stroke-linejoin:round;stroke-miterlimit:4;stroke-dasharray:none;stroke-opacity:0.992157"
         id="rect35742-7-9-8-7-6"
         width="50"
         height="5"
         x="8.4090471"
         y="40.3265"
         ry="0" />
    </clipPath>
    <clipPath
       clipPathUnits="userSpaceOnUse"
       id="clipPath35740-6-0">
      <rect
         style="opacity:0.99;fill:#00b050;fill-opacity:1;stroke:none;stroke-width:0.0533096;stroke-linecap:round;stroke-linejoin:round;stroke-miterlimit:4;stroke-dasharray:none;stroke-opacity:0.992157"
         id="rect35742-5-2"
         width="50"
         height="5"
         x="8.4090471"
         y="40.3265"
         ry="0" />
    </clipPath>
    <clipPath
       clipPathUnits="userSpaceOnUse"
       id="clipPath35740-9-8">
      <rect
         style="opacity:0.99;fill:#00b050;fill-opacity:1;stroke:none;stroke-width:0.0533096;stroke-linecap:round;stroke-linejoin:round;stroke-miterlimit:4;stroke-dasharray:none;stroke-opacity:0.992157"
         id="rect35742-7-4"
         width="50"
         height="5"
         x="8.4090471"
         y="40.3265"
         ry="0" />
    </clipPath>
    <clipPath
       clipPathUnits="userSpaceOnUse"
       id="clipPath35740-9-9-4">
      <rect
         style="opacity:0.99;fill:#00b050;fill-opacity:1;stroke:none;stroke-width:0.0533096;stroke-linecap:round;stroke-linejoin:round;stroke-miterlimit:4;stroke-dasharray:none;stroke-opacity:0.992157"
         id="rect35742-7-9-80"
         width="50"
         height="5"
         x="8.4090471"
         y="40.3265"
         ry="0" />
    </clipPath>
    <clipPath
       clipPathUnits="userSpaceOnUse"
       id="clipPath35740-9-91-1">
      <rect
         style="opacity:0.99;fill:#00b050;fill-opacity:1;stroke:none;stroke-width:0.0533096;stroke-linecap:round;stroke-linejoin:round;stroke-miterlimit:4;stroke-dasharray:none;stroke-opacity:0.992157"
         id="rect35742-7-5-5"
         width="50"
         height="5"
         x="8.4090471"
         y="40.3265"
         ry="0" />
    </clipPath>
    <clipPath
       clipPathUnits="userSpaceOnUse"
       id="clipPath35740-9-9-9-11">
      <rect
         style="opacity:0.99;fill:#00b050;fill-opacity:1;stroke:none;stroke-width:0.0533096;stroke-linecap:round;stroke-linejoin:round;stroke-miterlimit:4;stroke-dasharray:none;stroke-opacity:0.992157"
         id="rect35742-7-9-8-1"
         width="50"
         height="5"
         x="8.4090471"
         y="40.3265"
         ry="0" />
    </clipPath>
    <clipPath
       clipPathUnits="userSpaceOnUse"
       id="clipPath35740-5">
      <rect
         style="opacity:0.99;fill:#00b050;fill-opacity:1;stroke:none;stroke-width:0.0533096;stroke-linecap:round;stroke-linejoin:round;stroke-miterlimit:4;stroke-dasharray:none;stroke-opacity:0.992157"
         id="rect35742-1"
         width="50"
         height="5"
         x="8.4090471"
         y="40.3265"
         ry="0" />
    </clipPath>
    <clipPath
       clipPathUnits="userSpaceOnUse"
       id="clipPath35740-9-98-6">
      <rect
         style="opacity:0.99;fill:#00b050;fill-opacity:1;stroke:none;stroke-width:0.0533096;stroke-linecap:round;stroke-linejoin:round;stroke-miterlimit:4;stroke-dasharray:none;stroke-opacity:0.992157"
         id="rect35742-7-3-5"
         width="50"
         height="5"
         x="8.4090471"
         y="40.3265"
         ry="0" />
    </clipPath>
    <clipPath
       clipPathUnits="userSpaceOnUse"
       id="clipPath35740-9-9-7-9">
      <rect
         style="opacity:0.99;fill:#00b050;fill-opacity:1;stroke:none;stroke-width:0.0533096;stroke-linecap:round;stroke-linejoin:round;stroke-miterlimit:4;stroke-dasharray:none;stroke-opacity:0.992157"
         id="rect35742-7-9-1-5"
         width="50"
         height="5"
         x="8.4090471"
         y="40.3265"
         ry="0" />
    </clipPath>
    <clipPath
       clipPathUnits="userSpaceOnUse"
       id="clipPath35740-9-98-6-4">
      <rect
         style="opacity:0.99;fill:#00b050;fill-opacity:1;stroke:none;stroke-width:0.0533096;stroke-linecap:round;stroke-linejoin:round;stroke-miterlimit:4;stroke-dasharray:none;stroke-opacity:0.992157"
         id="rect35742-7-3-5-1"
         width="50"
         height="5"
         x="8.4090471"
         y="40.3265"
         ry="0" />
    </clipPath>
    <clipPath
       clipPathUnits="userSpaceOnUse"
       id="clipPath35740-9-9-7-9-7">
      <rect
         style="opacity:0.99;fill:#00b050;fill-opacity:1;stroke:none;stroke-width:0.0533096;stroke-linecap:round;stroke-linejoin:round;stroke-miterlimit:4;stroke-dasharray:none;stroke-opacity:0.992157"
         id="rect35742-7-9-1-5-1"
         width="50"
         height="5"
         x="8.4090471"
         y="40.3265"
         ry="0" />
    </clipPath>
    <clipPath
       clipPathUnits="userSpaceOnUse"
       id="clipPath35740-9-98-6-8">
      <rect
         style="opacity:0.99;fill:#00b050;fill-opacity:1;stroke:none;stroke-width:0.0533096;stroke-linecap:round;stroke-linejoin:round;stroke-miterlimit:4;stroke-dasharray:none;stroke-opacity:0.992157"
         id="rect35742-7-3-5-7"
         width="50"
         height="5"
         x="8.4090471"
         y="40.3265"
         ry="0" />
    </clipPath>
    <clipPath
       clipPathUnits="userSpaceOnUse"
       id="clipPath35740-9-9-7-9-74">
      <rect
         style="opacity:0.99;fill:#00b050;fill-opacity:1;stroke:none;stroke-width:0.0533096;stroke-linecap:round;stroke-linejoin:round;stroke-miterlimit:4;stroke-dasharray:none;stroke-opacity:0.992157"
         id="rect35742-7-9-1-5-4"
         width="50"
         height="5"
         x="8.4090471"
         y="40.3265"
         ry="0" />
    </clipPath>
    <clipPath
       clipPathUnits="userSpaceOnUse"
       id="clipPath35740-9-98-6-4-9">
      <rect
         style="opacity:0.99;fill:#00b050;fill-opacity:1;stroke:none;stroke-width:0.0533096;stroke-linecap:round;stroke-linejoin:round;stroke-miterlimit:4;stroke-dasharray:none;stroke-opacity:0.992157"
         id="rect35742-7-3-5-1-1"
         width="50"
         height="5"
         x="8.4090471"
         y="40.3265"
         ry="0" />
    </clipPath>
    <clipPath
       clipPathUnits="userSpaceOnUse"
       id="clipPath35740-9-9-7-9-7-5">
      <rect
         style="opacity:0.99;fill:#00b050;fill-opacity:1;stroke:none;stroke-width:0.0533096;stroke-linecap:round;stroke-linejoin:round;stroke-miterlimit:4;stroke-dasharray:none;stroke-opacity:0.992157"
         id="rect35742-7-9-1-5-1-5"
         width="50"
         height="5"
         x="8.4090471"
         y="40.3265"
         ry="0" />
    </clipPath>
    <clipPath
       clipPathUnits="userSpaceOnUse"
       id="clipPath35740-9-98-6-8-2">
      <rect
         style="opacity:0.99;fill:#00b050;fill-opacity:1;stroke:none;stroke-width:0.0533096;stroke-linecap:round;stroke-linejoin:round;stroke-miterlimit:4;stroke-dasharray:none;stroke-opacity:0.992157"
         id="rect35742-7-3-5-7-2"
         width="50"
         height="5"
         x="8.4090471"
         y="40.3265"
         ry="0" />
    </clipPath>
    <clipPath
       clipPathUnits="userSpaceOnUse"
       id="clipPath35740-9-98-6-2">
      <rect
         style="opacity:0.99;fill:#00b050;fill-opacity:1;stroke:none;stroke-width:0.0533096;stroke-linecap:round;stroke-linejoin:round;stroke-miterlimit:4;stroke-dasharray:none;stroke-opacity:0.992157"
         id="rect35742-7-3-5-2"
         width="50"
         height="5"
         x="8.4090471"
         y="40.3265"
         ry="0" />
    </clipPath>
    <clipPath
       clipPathUnits="userSpaceOnUse"
       id="clipPath35740-9-9-7-9-71">
      <rect
         style="opacity:0.99;fill:#00b050;fill-opacity:1;stroke:none;stroke-width:0.0533096;stroke-linecap:round;stroke-linejoin:round;stroke-miterlimit:4;stroke-dasharray:none;stroke-opacity:0.992157"
         id="rect35742-7-9-1-5-5"
         width="50"
         height="5"
         x="8.4090471"
         y="40.3265"
         ry="0" />
    </clipPath>
    <clipPath
       clipPathUnits="userSpaceOnUse"
       id="clipPath35740-9-98-6-4-2">
      <rect
         style="opacity:0.99;fill:#00b050;fill-opacity:1;stroke:none;stroke-width:0.0533096;stroke-linecap:round;stroke-linejoin:round;stroke-miterlimit:4;stroke-dasharray:none;stroke-opacity:0.992157"
         id="rect35742-7-3-5-1-11"
         width="50"
         height="5"
         x="8.4090471"
         y="40.3265"
         ry="0" />
    </clipPath>
    <clipPath
       clipPathUnits="userSpaceOnUse"
       id="clipPath35740-9-9-7-9-7-0">
      <rect
         style="opacity:0.99;fill:#00b050;fill-opacity:1;stroke:none;stroke-width:0.0533096;stroke-linecap:round;stroke-linejoin:round;stroke-miterlimit:4;stroke-dasharray:none;stroke-opacity:0.992157"
         id="rect35742-7-9-1-5-1-1"
         width="50"
         height="5"
         x="8.4090471"
         y="40.3265"
         ry="0" />
    </clipPath>
    <clipPath
       clipPathUnits="userSpaceOnUse"
       id="clipPath35740-9-98-6-8-8">
      <rect
         style="opacity:0.99;fill:#00b050;fill-opacity:1;stroke:none;stroke-width:0.0533096;stroke-linecap:round;stroke-linejoin:round;stroke-miterlimit:4;stroke-dasharray:none;stroke-opacity:0.992157"
         id="rect35742-7-3-5-7-7"
         width="50"
         height="5"
         x="8.4090471"
         y="40.3265"
         ry="0" />
    </clipPath>
    <clipPath
       clipPathUnits="userSpaceOnUse"
       id="clipPath35740-9-98-6-8-2-6">
      <rect
         style="opacity:0.99;fill:#00b050;fill-opacity:1;stroke:none;stroke-width:0.0533096;stroke-linecap:round;stroke-linejoin:round;stroke-miterlimit:4;stroke-dasharray:none;stroke-opacity:0.992157"
         id="rect35742-7-3-5-7-2-0"
         width="50"
         height="5"
         x="8.4090471"
         y="40.3265"
         ry="0" />
    </clipPath>
  </defs>
  <g
     inkscape:label="Layer 1"
     inkscape:groupmode="layer"
     id="layer1"
     transform="translate(3.9882748,-2.2521729)">
    <rect
       style="opacity:0.99;fill:#00b050;fill-opacity:1;stroke:none;stroke-width:4.99999;stroke-linecap:square;stroke-linejoin:round"
       id="rect3506-0-4"
       width="50"
       height="5"
       x="-3.9882736"
       y="7.2521725" />
    <rect
       style="opacity:0.99;fill:#00b050;fill-opacity:1;stroke:none;stroke-width:4.99999;stroke-linecap:square;stroke-linejoin:round"
       id="rect3506-0-4-9"
       width="50"
       height="5"
       x="-3.9882748"
       y="39.752174" />
    <rect
       style="opacity:0.99;fill:#1d4283;fill-opacity:1;stroke:none;stroke-width:4.99999;stroke-linecap:square;stroke-linejoin:round"
       id="rect3506"
       width="50"
       height="5"
       x="-3.9882739"
       y="34.752174" />
    <rect
       style="fill:#1d4289;fill-opacity:1;stroke:none;stroke-width:0.0530331;stroke-linecap:square;stroke-linejoin:round;stroke-miterlimit:4;stroke-dasharray:none;stroke-opacity:1"
       id="rect35766-3-0"
       width="50"
       height="5"
       x="-3.9882734"
       y="24.752176"
       inkscape:export-filename="/Users/lawrence/welcome to the ca.png"
       inkscape:export-xdpi="2540"
       inkscape:export-ydpi="2540" />
    <path
       id="path31487-2-0-1-5-53-45"
       style="fill:none;stroke:#00b050;stroke-width:5;stroke-linecap:square;stroke-linejoin:miter;stroke-miterlimit:4;stroke-dasharray:none;stroke-opacity:0.992157"
       d="M -3.0492877,52.826499 16.950712,32.8265 m 32.91667,20 20,-19.999999 M 39.284048,52.8265 l 20,-19.999999 M 28.700714,52.8265 l 20,-19.999999 M 18.11738,52.8265 l 20,-20 M 7.5340458,52.826499 27.534046,32.8265"
       sodipodi:nodetypes="cccccccccccc"
       clip-path="url(#clipPath35740-9-98)"
       transform="translate(2.5140242,-14.902334)" />
    <path
       id="path31487-2-0-1-5-53-4-1"
       style="fill:none;stroke:#00b050;stroke-width:5;stroke-linecap:square;stroke-linejoin:miter;stroke-miterlimit:4;stroke-dasharray:none;stroke-opacity:0.992157"
       d="M -3.0492877,52.826499 16.950712,32.8265 m 32.91667,20 20,-19.999999 M 39.284048,52.8265 l 20,-19.999999 M 28.700714,52.8265 l 20,-19.999999 M 18.11738,52.8265 l 20,-20 M 7.5340458,52.826499 27.534046,32.8265"
       sodipodi:nodetypes="cccccccccccc"
       clip-path="url(#clipPath35740-9-9-7)"
       transform="translate(-18.652644,-14.902335)" />
    <path
       id="path31487-2-0-1-5-53-45-4"
       style="fill:none;stroke:#00b050;stroke-width:5;stroke-linecap:square;stroke-linejoin:miter;stroke-miterlimit:4;stroke-dasharray:none;stroke-opacity:0.992157"
       d="M -3.0492877,52.826499 16.950712,32.8265 m 32.91667,20 20,-19.999999 M 39.284048,52.8265 l 20,-19.999999 M 28.700714,52.8265 l 20,-19.999999 M 18.11738,52.8265 l 20,-20 M 7.5340458,52.826499 27.534046,32.8265"
       sodipodi:nodetypes="cccccccccccc"
       clip-path="url(#clipPath35740-9-98-6)"
       transform="translate(-6.5976601,-5.7906513)" />
    <path
       id="path31487-2-0-1-5-53-4-1-9"
       style="fill:none;stroke:#00b050;stroke-width:5;stroke-linecap:square;stroke-linejoin:miter;stroke-miterlimit:4;stroke-dasharray:none;stroke-opacity:0.992157"
       d="M -3.0492877,52.826499 16.950712,32.8265 m 32.91667,20 20,-19.999999 M 39.284048,52.8265 l 20,-19.999999 M 28.700714,52.8265 l 20,-19.999999 M 18.11738,52.8265 l 20,-20 M 7.5340458,52.826499 27.534046,32.8265"
       sodipodi:nodetypes="cccccccccccc"
       clip-path="url(#clipPath35740-9-9-7-9)"
       transform="translate(-27.764329,-5.7906523)" />
    <path
       id="path31487-2-0-1-5-53-45-4-8"
       style="fill:none;stroke:#00b050;stroke-width:5;stroke-linecap:square;stroke-linejoin:miter;stroke-miterlimit:4;stroke-dasharray:none;stroke-opacity:0.992157"
       d="M -3.0492877,52.826499 16.950712,32.8265 m 32.91667,20 20,-19.999999 M 39.284048,52.8265 l 20,-19.999999 M 28.700714,52.8265 l 20,-19.999999 M 18.11738,52.8265 l 20,-20 M 7.5340458,52.826499 27.534046,32.8265"
       sodipodi:nodetypes="cccccccccccc"
       clip-path="url(#clipPath35740-9-98-6-4)"
       transform="translate(3.6305898,-5.4355687)" />
    <path
       id="path31487-2-0-1-5-53-4-1-9-7"
       style="fill:none;stroke:#00b050;stroke-width:5;stroke-linecap:square;stroke-linejoin:miter;stroke-miterlimit:4;stroke-dasharray:none;stroke-opacity:0.992157"
       d="M -3.0492877,52.826499 16.950712,32.8265 m 32.91667,20 20,-19.999999 M 39.284048,52.8265 l 20,-19.999999 M 28.700714,52.8265 l 20,-19.999999 M 18.11738,52.8265 l 20,-20 M 7.5340458,52.826499 27.534046,32.8265"
       sodipodi:nodetypes="cccccccccccc"
       clip-path="url(#clipPath35740-9-9-7-9-7)"
       transform="translate(-17.536079,-5.4355697)" />
    <path
       id="path31487-2-0-1-5-53-3-2"
       style="fill:none;stroke:#00b050;stroke-width:5;stroke-linecap:square;stroke-linejoin:miter;stroke-miterlimit:4;stroke-dasharray:none;stroke-opacity:0.992157"
       d="M -3.0492877,52.826499 16.950712,32.8265 m 32.91667,20 20,-19.999999 M 39.284048,52.8265 l 20,-19.999999 M 28.700714,52.8265 l 20,-19.999999 M 18.11738,52.8265 l 20,-20 M 7.5340458,52.826499 27.534046,32.8265"
       sodipodi:nodetypes="cccccccccccc"
       clip-path="url(#clipPath35740-9-91-2)"
       transform="translate(6.9739213,-19.362231)" />
    <path
       id="path31487-2-0-1-5-53-4-0-3"
       style="fill:none;stroke:#00b050;stroke-width:5;stroke-linecap:square;stroke-linejoin:miter;stroke-miterlimit:4;stroke-dasharray:none;stroke-opacity:0.992157"
       d="M -3.0492877,52.826499 16.950712,32.8265 m 32.91667,20 20,-19.999999 M 39.284048,52.8265 l 20,-19.999999 M 28.700714,52.8265 l 20,-19.999999 M 18.11738,52.8265 l 20,-20 M 7.5340458,52.826499 27.534046,32.8265"
       sodipodi:nodetypes="cccccccccccc"
       clip-path="url(#clipPath35740-9-9-9-1)"
       transform="translate(-14.192747,-19.362232)" />
    <rect
       style="fill:#00b050;fill-opacity:0.992157;stroke:none;stroke-width:0.0530331;stroke-linecap:square;stroke-linejoin:round;stroke-miterlimit:4;stroke-dasharray:none;stroke-opacity:1"
       id="rect35766-7"
       width="50"
       height="5"
       x="-3.9882741"
       y="29.752176"
       inkscape:export-filename="/Users/lawrence/welcome to the ca.png"
       inkscape:export-xdpi="2540"
       inkscape:export-ydpi="2540" />
    <path
       id="path31487-2-0-1-5-2"
       style="fill:none;stroke:#1d4289;stroke-width:5;stroke-linecap:square;stroke-linejoin:miter;stroke-miterlimit:4;stroke-dasharray:none;stroke-opacity:1"
       d="M -3.0492877,52.826499 16.950712,32.8265 m 32.91667,20 20,-19.999999 M 39.284048,52.8265 l 20,-19.999999 M 28.700714,52.8265 l 20,-19.999999 M 18.11738,52.8265 l 20,-20 M 7.5340458,52.826499 27.534046,32.8265"
       sodipodi:nodetypes="cccccccccccc"
       clip-path="url(#clipPath35740-6)"
       transform="translate(-12.397321,-10.574324)"
       inkscape:export-filename="/Users/lawrence/welcome to the ca.png"
       inkscape:export-xdpi="2540"
       inkscape:export-ydpi="2540" />
    <rect
       style="fill:#1d4289;fill-opacity:1;stroke:none;stroke-width:0.0530331;stroke-linecap:square;stroke-linejoin:round;stroke-miterlimit:4;stroke-dasharray:none;stroke-opacity:1"
       id="rect35766-3"
       width="50"
       height="5"
       x="-3.9882736"
       y="12.252172"
       inkscape:export-filename="/Users/lawrence/welcome to the ca.png"
       inkscape:export-xdpi="2540"
       inkscape:export-ydpi="2540" />
    <path
       id="path31487-2-0-1-5-53"
       style="fill:none;stroke:#00b050;stroke-width:5;stroke-linecap:square;stroke-linejoin:miter;stroke-miterlimit:4;stroke-dasharray:none;stroke-opacity:0.992157"
       d="M -3.0492877,52.826499 16.950712,32.8265 m 32.91667,20 20,-19.999999 M 39.284048,52.8265 l 20,-19.999999 M 28.700714,52.8265 l 20,-19.999999 M 18.11738,52.8265 l 20,-20 M 7.5340458,52.826499 27.534046,32.8265"
       sodipodi:nodetypes="cccccccccccc"
       clip-path="url(#clipPath35740-9)"
       transform="translate(2.514024,-27.402337)" />
    <path
       id="path31487-2-0-1-5-53-4"
       style="fill:none;stroke:#00b050;stroke-width:5;stroke-linecap:square;stroke-linejoin:miter;stroke-miterlimit:4;stroke-dasharray:none;stroke-opacity:0.992157"
       d="M -3.0492877,52.826499 16.950712,32.8265 m 32.91667,20 20,-19.999999 M 39.284048,52.8265 l 20,-19.999999 M 28.700714,52.8265 l 20,-19.999999 M 18.11738,52.8265 l 20,-20 M 7.5340458,52.826499 27.534046,32.8265"
       sodipodi:nodetypes="cccccccccccc"
       clip-path="url(#clipPath35740-9-9)"
       transform="translate(-18.652644,-27.402338)" />
    <path
       id="path31487-2-0-1-5-53-3"
       style="fill:none;stroke:#00b050;stroke-width:5;stroke-linecap:square;stroke-linejoin:miter;stroke-miterlimit:4;stroke-dasharray:none;stroke-opacity:0.992157"
       d="M -3.0492877,52.826499 16.950712,32.8265 m 32.91667,20 20,-19.999999 M 39.284048,52.8265 l 20,-19.999999 M 28.700714,52.8265 l 20,-19.999999 M 18.11738,52.8265 l 20,-20 M 7.5340458,52.826499 27.534046,32.8265"
       sodipodi:nodetypes="cccccccccccc"
       clip-path="url(#clipPath35740-9-91)"
       transform="translate(6.9739212,-31.862234)" />
    <path
       id="path31487-2-0-1-5-53-4-0"
       style="fill:none;stroke:#00b050;stroke-width:5;stroke-linecap:square;stroke-linejoin:miter;stroke-miterlimit:4;stroke-dasharray:none;stroke-opacity:0.992157"
       d="M -3.0492877,52.826499 16.950712,32.8265 m 32.91667,20 20,-19.999999 M 39.284048,52.8265 l 20,-19.999999 M 28.700714,52.8265 l 20,-19.999999 M 18.11738,52.8265 l 20,-20 M 7.5340458,52.826499 27.534046,32.8265"
       sodipodi:nodetypes="cccccccccccc"
       clip-path="url(#clipPath35740-9-9-9)"
       transform="translate(-14.192747,-31.862235)" />
    <rect
       style="opacity:1;fill:#00b050;fill-opacity:0.992157;stroke:none;stroke-width:0.0530331;stroke-linecap:square;stroke-linejoin:round;stroke-miterlimit:4;stroke-dasharray:none;stroke-opacity:1"
       id="rect35766"
       width="50"
       height="5"
       x="-3.9882743"
       y="17.252172"
       inkscape:export-filename="/Users/lawrence/welcome to the ca.png"
       inkscape:export-xdpi="2540"
       inkscape:export-ydpi="2540" />
    <path
       id="path31487-2-0-1-5"
       style="fill:none;stroke:#1d4289;stroke-width:5;stroke-linecap:square;stroke-linejoin:miter;stroke-miterlimit:4;stroke-dasharray:none;stroke-opacity:1"
       d="M -3.0492877,52.826499 16.950712,32.8265 m 32.91667,20 20,-19.999999 M 39.284048,52.8265 l 20,-19.999999 M 28.700714,52.8265 l 20,-19.999999 M 18.11738,52.8265 l 20,-20 M 7.5340458,52.826499 27.534046,32.8265"
       sodipodi:nodetypes="cccccccccccc"
       clip-path="url(#clipPath35740)"
       transform="translate(-12.397321,-23.074327)"
       inkscape:export-filename="/Users/lawrence/welcome to the ca.png"
       inkscape:export-xdpi="2540"
       inkscape:export-ydpi="2540" />
    <rect
       style="opacity:1;fill:#1d4289;fill-opacity:1;stroke:none;stroke-width:0.0751303;stroke-linecap:square;stroke-linejoin:round;stroke-miterlimit:4;stroke-dasharray:none;stroke-opacity:1"
       id="rect51232"
       width="50"
       height="2.5"
       x="-3.9882736"
       y="22.252176"
       inkscape:export-filename="/Users/lawrence/welcome to the ca.png"
       inkscape:export-xdpi="2540"
       inkscape:export-ydpi="2540" />
    <g
       aria-label="TO THE"
       id="text54414"
       style="font-style:italic;font-weight:300;font-size:2.49408px;line-height:1.25;font-family:'Kayak Sans';-inkscape-font-specification:'Kayak Sans Light Italic';fill:#ffffff;stroke-width:0.467641"
       inkscape:export-filename="/Users/lawrence/welcome to the ca.png"
       inkscape:export-xdpi="2540"
       inkscape:export-ydpi="2540">
      <path
         d="m 17.44658,22.628396 -0.01948,0.13883 h 0.535837 l -0.226513,1.609948 h 0.138831 l 0.226513,-1.609948 h 0.535838 l 0.01948,-0.13883 z"
         id="path1037" />
      <path
         d="m 19.021212,24.238344 q -0.266701,0 -0.3897,-0.19485 -0.121782,-0.196068 -0.07307,-0.540709 0.04749,-0.345859 0.225295,-0.540709 0.177801,-0.196068 0.443284,-0.196068 0.266701,0 0.388482,0.196068 0.122999,0.19485 0.07429,0.540709 -0.04871,0.344641 -0.225296,0.540709 -0.1778,0.19485 -0.443283,0.19485 z m 0.225295,-1.611166 q -0.326374,0 -0.548016,0.235038 -0.222859,0.235037 -0.280097,0.640569 -0.05602,0.404314 0.09986,0.639352 0.157098,0.235037 0.483472,0.235037 0.325156,0 0.548015,-0.235037 0.22286,-0.235038 0.278879,-0.639352 0.05724,-0.405532 -0.09864,-0.640569 -0.157097,-0.235038 -0.483471,-0.235038 z"
         id="path1039" />
      <path
         d="m 20.72006,22.628396 -0.01948,0.13883 h 0.535838 L 21.0099,24.377174 h 0.13883 l 0.226513,-1.609948 h 0.535838 l 0.01948,-0.13883 z"
         id="path1041" />
      <path
         d="m 23.098448,22.628396 -0.113257,0.804974 h -0.892656 l 0.113256,-0.804974 h -0.13883 l -0.245999,1.748778 h 0.138831 L 22.07305,23.5722 h 0.892656 l -0.113256,0.804974 h 0.13883 l 0.245998,-1.748778 z"
         id="path1043" />
      <path
         d="m 23.518593,22.628396 -0.245998,1.748778 h 1.078982 l 0.01948,-0.13883 h -0.940151 l 0.09377,-0.666144 h 0.636916 l 0.01948,-0.13883 h -0.636916 l 0.09377,-0.666144 h 0.938933 l 0.01948,-0.13883 z"
         id="path1045" />
    </g>
    <path
       id="path31487-2-0-1-5-53-45-4-82"
       style="fill:none;stroke:#1d4283;stroke-width:5;stroke-linecap:square;stroke-linejoin:miter;stroke-miterlimit:4;stroke-dasharray:none;stroke-opacity:0.992157"
       d="M -3.0492877,52.826499 16.950712,32.8265 m 32.91667,20 20,-19.999999 M 39.284048,52.8265 l 20,-19.999999 M 28.700714,52.8265 l 20,-19.999999 M 18.11738,52.8265 l 20,-20 M 7.5340458,52.826499 27.534046,32.8265"
       sodipodi:nodetypes="cccccccccccc"
       clip-path="url(#clipPath35740-9-98-6-8)"
       transform="translate(-1.230653,-0.5743245)" />
    <path
       id="path31487-2-0-1-5-53-45-4-82-5"
       style="fill:none;stroke:#1d4283;stroke-width:5;stroke-linecap:square;stroke-linejoin:miter;stroke-miterlimit:4;stroke-dasharray:none;stroke-opacity:0.992157"
       d="M -3.0492877,52.826499 16.950712,32.8265 m 32.91667,20 20,-19.999999 M 39.284048,52.8265 l 20,-19.999999 M 28.700714,52.8265 l 20,-19.999999 M 18.11738,52.8265 l 20,-20 M 7.5340458,52.826499 27.534046,32.8265"
       sodipodi:nodetypes="cccccccccccc"
       clip-path="url(#clipPath35740-9-98-6-8-2)"
       transform="translate(-22.397321,-0.5743245)" />
    <rect
       style="opacity:0.99;fill:#1d4283;fill-opacity:1;stroke:none;stroke-width:4.99999;stroke-linecap:square;stroke-linejoin:round"
       id="rect3506-0"
       width="50"
       height="5"
       x="-3.9882748"
       y="2.2521718" />
    <path
       id="path31487-2-0-1-5-53-45-4-9"
       style="fill:none;stroke:#00b050;stroke-width:5;stroke-linecap:square;stroke-linejoin:miter;stroke-miterlimit:4;stroke-dasharray:none;stroke-opacity:0.992157"
       d="M -3.0492877,52.826499 16.950712,32.8265 m 32.91667,20 20,-19.999999 M 39.284048,52.8265 l 20,-19.999999 M 28.700714,52.8265 l 20,-19.999999 M 18.11738,52.8265 l 20,-20 M 7.5340458,52.826499 27.534046,32.8265"
       sodipodi:nodetypes="cccccccccccc"
       clip-path="url(#clipPath35740-9-98-6-2)"
       transform="translate(-7.7643281,-38.290653)" />
    <path
       id="path31487-2-0-1-5-53-4-1-9-5"
       style="fill:none;stroke:#00b050;stroke-width:5;stroke-linecap:square;stroke-linejoin:miter;stroke-miterlimit:4;stroke-dasharray:none;stroke-opacity:0.992157"
       d="M -3.0492877,52.826499 16.950712,32.8265 m 32.91667,20 20,-19.999999 M 39.284048,52.8265 l 20,-19.999999 M 28.700714,52.8265 l 20,-19.999999 M 18.11738,52.8265 l 20,-20 M 7.5340458,52.826499 27.534046,32.8265"
       sodipodi:nodetypes="cccccccccccc"
       clip-path="url(#clipPath35740-9-9-7-9-71)"
       transform="translate(-28.930997,-38.290654)" />
    <path
       id="path31487-2-0-1-5-53-45-4-8-6"
       style="fill:none;stroke:#00b050;stroke-width:5;stroke-linecap:square;stroke-linejoin:miter;stroke-miterlimit:4;stroke-dasharray:none;stroke-opacity:0.992157"
       d="M -3.0492877,52.826499 16.950712,32.8265 m 32.91667,20 20,-19.999999 M 39.284048,52.8265 l 20,-19.999999 M 28.700714,52.8265 l 20,-19.999999 M 18.11738,52.8265 l 20,-20 M 7.5340458,52.826499 27.534046,32.8265"
       sodipodi:nodetypes="cccccccccccc"
       clip-path="url(#clipPath35740-9-98-6-4-2)"
       transform="translate(2.4639218,-37.935571)" />
    <path
       id="path31487-2-0-1-5-53-4-1-9-7-2"
       style="fill:none;stroke:#00b050;stroke-width:5;stroke-linecap:square;stroke-linejoin:miter;stroke-miterlimit:4;stroke-dasharray:none;stroke-opacity:0.992157"
       d="M -3.0492877,52.826499 16.950712,32.8265 m 32.91667,20 20,-19.999999 M 39.284048,52.8265 l 20,-19.999999 M 28.700714,52.8265 l 20,-19.999999 M 18.11738,52.8265 l 20,-20 M 7.5340458,52.826499 27.534046,32.8265"
       sodipodi:nodetypes="cccccccccccc"
       clip-path="url(#clipPath35740-9-9-7-9-7-0)"
       transform="translate(-18.702747,-37.935572)" />
    <path
       id="path31487-2-0-1-5-53-45-4-82-8"
       style="fill:none;stroke:#1d4283;stroke-width:5;stroke-linecap:square;stroke-linejoin:miter;stroke-miterlimit:4;stroke-dasharray:none;stroke-opacity:0.992157"
       d="M -3.0492877,52.826499 16.950712,32.8265 m 32.91667,20 20,-19.999999 M 39.284048,52.8265 l 20,-19.999999 M 28.700714,52.8265 l 20,-19.999999 M 18.11738,52.8265 l 20,-20 M 7.5340458,52.826499 27.534046,32.8265"
       sodipodi:nodetypes="cccccccccccc"
       clip-path="url(#clipPath35740-9-98-6-8-8)"
       transform="translate(-2.3973211,-33.074326)" />
    <path
       id="path31487-2-0-1-5-53-45-4-82-5-5"
       style="fill:none;stroke:#1d4283;stroke-width:5;stroke-linecap:square;stroke-linejoin:miter;stroke-miterlimit:4;stroke-dasharray:none;stroke-opacity:0.992157"
       d="M -3.0492877,52.826499 16.950712,32.8265 m 32.91667,20 20,-19.999999 M 39.284048,52.8265 l 20,-19.999999 M 28.700714,52.8265 l 20,-19.999999 M 18.11738,52.8265 l 20,-20 M 7.5340458,52.826499 27.534046,32.8265"
       sodipodi:nodetypes="cccccccccccc"
       clip-path="url(#clipPath35740-9-98-6-8-2-6)"
       transform="translate(-23.563989,-33.074326)" />
    <rect
       style="fill:#000000;fill-opacity:0.5;stroke:none;stroke-width:0.106066;stroke-linecap:square;stroke-linejoin:round;stroke-miterlimit:4;stroke-dasharray:none;stroke-opacity:1"
       id="rect50670-4"
       width="50"
       height="20"
       x="-3.9882734"
       y="24.752176"
       inkscape:export-filename="/Users/lawrence/welcome to the ca.png"
       inkscape:export-xdpi="2540"
       inkscape:export-ydpi="2540" />
    <g
       aria-label="CUPERTINO ALLIANCE"
       id="text46776-1"
       style="font-style:italic;font-weight:bold;font-size:4.9389px;line-height:1.25;font-family:'Kayak Sans';-inkscape-font-specification:'Kayak Sans Bold Italic';text-align:center;text-anchor:middle;fill:#ffffff;stroke-width:0.264583"
       inkscape:export-filename="/Users/lawrence/welcome to the ca.png"
       inkscape:export-xdpi="2540"
       inkscape:export-ydpi="2540">
      <text
         xml:space="preserve"
         style="font-style:italic;font-variant:normal;font-weight:bold;font-stretch:normal;font-size:4.93821px;line-height:1.25;font-family:'Kayak Sans';-inkscape-font-specification:'Kayak Sans Bold Italic';fill:#ffffff;stroke-width:0.244981"
         x="21.012606"
         y="34.153088"
         id="text1697"><tspan
           sodipodi:role="line"
           id="tspan1695"
           style="font-style:italic;font-variant:normal;font-weight:bold;font-stretch:normal;font-family:'Kayak Sans';-inkscape-font-specification:'Kayak Sans Bold Italic';fill:#ffffff;stroke-width:0.244981"
           x="21.012606"
           y="34.153088">CUPERTINO</tspan><tspan
           sodipodi:role="line"
           style="font-style:italic;font-variant:normal;font-weight:bold;font-stretch:normal;font-family:'Kayak Sans';-inkscape-font-specification:'Kayak Sans Bold Italic';fill:#ffffff;stroke-width:0.244981"
           x="21.012606"
           y="40.325851"
           id="tspan15117"
           dy="-1.5"
           rotate="0 0">ALLIANCE</tspan></text>
    </g>
    <rect
       style="opacity:1;fill:#000000;fill-opacity:0.5;stroke:none;stroke-width:0.106067;stroke-linecap:square;stroke-linejoin:round;stroke-miterlimit:4;stroke-dasharray:none;stroke-opacity:1"
       id="rect50670"
       width="50"
       height="20"
       x="-3.9882736"
       y="2.2521729"
       inkscape:export-filename="/Users/lawrence/welcome to the ca.png"
       inkscape:export-xdpi="2540"
       inkscape:export-ydpi="2540" />
    <g
       aria-label="WELCOME"
       id="text46776"
       style="font-style:italic;font-weight:bold;font-size:4.9389px;line-height:1.25;font-family:'Kayak Sans';-inkscape-font-specification:'Kayak Sans Bold Italic';fill:#ffffff;stroke-width:0.264583"
       inkscape:export-filename="/Users/lawrence/welcome to the ca.png"
       inkscape:export-xdpi="2540"
       inkscape:export-ydpi="2540"
       transform="translate(-6.6206055e-6,-5.0000065)">
      <path
         d="m 14.312379,15.512224 -1.029742,2.527328 -0.313504,-2.527328 h -0.549839 l -1.029741,2.527328 -0.313504,-2.527328 h -0.50643 l 0.431671,3.479899 h 0.50643 l 1.063504,-2.614145 0.32315,2.614145 h 0.50643 l 1.415593,-3.479899 z"
         id="path1022" />
      <path
         d="m 15.108197,15.517047 -0.487137,3.475076 h 2.230704 l 0.06994,-0.48955 h -1.743567 l 0.142283,-1.003214 h 1.179259 l 0.06994,-0.489549 h -1.18167 l 0.142282,-1.005625 h 1.741156 l 0.06994,-0.487138 z"
         id="path1024" />
      <path
         d="m 17.674111,15.517047 -0.487138,3.475076 h 2.004016 l 0.06994,-0.48955 H 17.74405 l 0.419614,-2.985526 z"
         id="path1026" />
      <path
         d="m 20.560762,18.502573 q -0.463022,0 -0.670417,-0.325562 -0.207395,-0.327974 -0.12299,-0.923632 0.08199,-0.595658 0.38344,-0.921221 0.299034,-0.327973 0.762056,-0.327973 0.619774,0 0.771703,0.564308 l 0.479903,-0.185692 q -0.113344,-0.419613 -0.419613,-0.643889 -0.30627,-0.221865 -0.764469,-0.221865 -0.67524,0 -1.131027,0.465433 -0.458199,0.467845 -0.571543,1.270899 -0.113344,0.805465 0.21463,1.270899 0.325563,0.467845 1.000803,0.467845 0.455787,0 0.829581,-0.2291 0.373793,-0.229099 0.602893,-0.646301 l -0.42926,-0.18328 q -0.308681,0.569131 -0.93569,0.569131 z"
         id="path1028" />
      <path
         d="m 23.498058,18.502573 q -0.446141,0 -0.64389,-0.325562 -0.200161,-0.327974 -0.115756,-0.923632 0.08441,-0.595658 0.373794,-0.921221 0.2918,-0.327973 0.73553,-0.327973 0.446141,0 0.643889,0.327973 0.200161,0.325563 0.115756,0.921221 -0.08441,0.595658 -0.373794,0.923632 -0.2918,0.325562 -0.735529,0.325562 z m 0.419613,-2.985526 q -0.658359,0 -1.106911,0.465433 -0.448553,0.467845 -0.561897,1.270899 -0.113344,0.805465 0.204984,1.270899 0.315916,0.467845 0.974275,0.467845 0.658359,0 1.106912,-0.467845 0.448552,-0.465434 0.561896,-1.270899 0.113344,-0.803054 -0.204984,-1.270899 -0.315916,-0.465433 -0.974275,-0.465433 z"
         id="path1030" />
      <path
         d="M 28.133099,15.519459 26.828438,18.1746 26.271365,15.519459 h -0.504018 l -0.487138,3.472664 h 0.489549 l 0.284566,-2.037779 0.412378,1.960608 v 0 0 0 h 0.516077 0.0024 v 0 -0.0024 l 0.962217,-1.958197 -0.286977,2.037779 h 0.489549 l 0.487138,-3.472664 z"
         id="path1032" />
      <path
         d="m 29.220718,15.517047 -0.487138,3.475076 h 2.230704 l 0.06994,-0.48955 h -1.743567 l 0.142283,-1.003214 h 1.179259 l 0.06994,-0.489549 h -1.18167 l 0.142283,-1.005625 h 1.741155 l 0.06994,-0.487138 z"
         id="path1034" />
    </g>
  </g>
</svg>
